<?xml version="1.0" standalone="no"?>
<svg viewBox="0 0 200 200" xmlns="http://www.w3.org/2000/svg">
  <path fill="#8A3FFC" d="M37.8,-68.7C48.8,-59.1,57.3,-48.6,66.9,-37C76.5,-25.3,87.2,-12.7,89.9,1.5C92.5,15.7,87.1,31.4,78.5,44.8C69.9,58.1,58,69,44.4,77.6C30.8,86.2,15.4,92.6,1.3,90.3C-12.8,88.1,-25.6,77.3,-38.6,68.4C-51.6,59.4,-64.7,52.1,-74,41C-83.2,29.9,-88.7,15,-88.6,0.1C-88.4,-14.8,-82.6,-29.5,-74.4,-42.6C-66.3,-55.7,-55.8,-67.1,-43,-75.7C-30.2,-84.2,-15.1,-90,-0.8,-88.5C13.4,-87,26.8,-78.4,37.8,-68.7Z" transform="translate(100 100)" />
</svg>
