<?xml version="1.0" standalone="no"?>
<svg viewBox="0 0 200 200" xmlns="http://www.w3.org/2000/svg">
  <path fill="#0F62FE" d="M46.4,-71.1C61,-62.9,74.2,-51.4,82.4,-36.7C90.6,-21.9,93.9,-4,91.3,13.1C88.8,30.2,80.5,46.4,69,60C57.5,73.5,42.8,84.5,26.3,89.3C9.7,94.1,-8.5,92.8,-25.7,87.7C-42.9,82.6,-59,73.9,-69.1,60.7C-79.1,47.6,-83.1,30,-85.3,12.5C-87.6,-5.1,-88,-22.8,-82.4,-38.7C-76.7,-54.5,-65,-68.6,-50.2,-76.8C-35.5,-85,-17.7,-87.2,-0.9,-85.8C15.9,-84.4,31.8,-79.4,46.4,-71.1Z" transform="translate(100 100)" />
</svg>
