<?xml version="1.0" standalone="no"?>
<svg viewBox="0 0 200 200" xmlns="http://www.w3.org/2000/svg">
  <path fill="#24A148" d="M45.5,-69.4C56.3,-63.8,60.7,-46.7,67,-31.1C73.4,-15.5,81.6,-1.3,80.4,12C79.3,25.4,68.6,37.8,58,50.5C47.4,63.1,36.7,76,23.9,78.5C11,81,-4.1,73.1,-20.7,68.9C-37.3,64.7,-55.4,64.2,-67.9,55.6C-80.4,47,-87.3,30.3,-88.1,13.7C-88.9,-2.9,-83.5,-19.3,-76.3,-34.8C-69.1,-50.2,-60,-64.8,-47,-69.4C-34,-74.1,-17,-68.9,0.2,-69.1C17.3,-69.4,34.6,-75.1,45.5,-69.4Z" transform="translate(100 100)" />
</svg>
