<?xml version="1.0" standalone="no"?>
<svg viewBox="0 0 200 200" xmlns="http://www.w3.org/2000/svg">
  <path fill="#8A3FFC" d="M45.1,-77.8C57,-71.3,64.2,-56.3,71.2,-41.9C78.2,-27.5,85.1,-13.7,86.3,0.7C87.5,15.2,83.2,30.3,74.6,42C66,53.7,53.2,61.8,40.1,66.7C26.9,71.5,13.5,73.1,-0.9,74.6C-15.2,76.1,-30.4,77.5,-42.8,72.2C-55.2,66.9,-64.8,54.9,-69,41.8C-73.2,28.7,-72,14.3,-71.8,0.1C-71.5,-14,-72.2,-28.1,-66,-37.8C-59.8,-47.4,-46.7,-52.8,-34.5,-59.1C-22.4,-65.5,-11.2,-72.9,2.7,-77.6C16.6,-82.3,33.2,-84.3,45.1,-77.8Z" transform="translate(100 100)" />
</svg>
