<?xml version="1.0" standalone="no"?>
<svg viewBox="0 0 200 200" xmlns="http://www.w3.org/2000/svg">
  <path fill="#8A3FFC" d="M41.9,-65.7C55.8,-56.2,69.8,-47.2,77.4,-34.3C84.9,-21.4,86,-4.4,82.3,10.9C78.7,26.2,70.3,39.9,59.8,51.5C49.3,63,36.6,72.3,22.7,75.6C8.8,78.9,-6.4,76.1,-23,73.4C-39.6,70.7,-57.6,68.1,-70,58.2C-82.5,48.3,-89.4,31.1,-89.3,14.4C-89.1,-2.2,-82,-18.2,-73.8,-32.7C-65.5,-47.1,-56.2,-60.1,-43.8,-70.3C-31.3,-80.5,-15.7,-87.9,-0.9,-86.5C13.9,-85.2,27.9,-75.2,41.9,-65.7Z" transform="translate(100 100)" />
</svg>
