<?xml version="1.0" standalone="no"?>
<svg viewBox="0 0 200 200" xmlns="http://www.w3.org/2000/svg">
  <path fill="#FF0066" d="M36,-60.6C50.1,-54.2,67.4,-51.5,73.1,-42.1C78.9,-32.6,73.1,-16.3,70.3,-1.6C67.5,13.1,67.8,26.2,64.8,40.5C61.9,54.8,55.8,70.4,44.4,75.7C33.1,80.9,16.6,75.8,2.2,71.9C-12.1,68.1,-24.1,65.4,-36.3,60.6C-48.5,55.9,-60.7,49,-65.9,38.5C-71.1,28.1,-69.3,14,-67,1.3C-64.7,-11.4,-62.1,-22.8,-56.3,-32.4C-50.6,-41.9,-41.8,-49.6,-31.9,-58.4C-22,-67.2,-11,-77.2,0,-77.1C10.9,-77.1,21.9,-67,36,-60.6Z" transform="translate(100 100)" />
</svg>
