<?xml version="1.0" standalone="no"?>
<svg viewBox="0 0 200 200" xmlns="http://www.w3.org/2000/svg">
  <path fill="#8A3FFC" d="M31.6,-53.2C40.4,-49.7,46.4,-40,45.5,-30.1C44.6,-20.2,36.8,-10.1,32.4,-2.6C27.9,5,26.9,9.9,23.5,12.5C20.2,15.1,14.5,15.2,10.2,16.6C5.9,17.9,3,20.5,0.9,18.8C-1.1,17.2,-2.1,11.4,-5.3,9.3C-8.5,7.3,-13.7,9.2,-25.1,8.2C-36.4,7.3,-53.8,3.7,-54.8,-0.5C-55.7,-4.7,-40.2,-9.5,-30.5,-13.2C-20.8,-17,-16.9,-19.7,-12.8,-25.9C-8.7,-32,-4.3,-41.5,3.6,-47.6C11.4,-53.8,22.9,-56.6,31.6,-53.2Z" transform="translate(100 100)" />
</svg>
